<svg xmlns="http://www.w3.org/2000/svg" width="64" height="64" viewBox="0 0 64 64" xmlns:xlink="http://www.w3.org/1999/xlink"><defs><circle id="a" cx="32" cy="32" r="28"/></defs><g fill="none" fill-rule="evenodd"><mask id="b" fill="#fff"><use xlink:href="#a"/></mask><use fill="#BCBCBC" xlink:href="#a"/><path fill="#FFF" fill-rule="nonzero" d="M36.324 41.455c0-.796-.653-1.455-1.441-1.455h-5.766c-.788 0-1.44.66-1.44 1.455v5.09c0 .796.652 1.455 1.44 1.455h5.766c.788 0 1.44-.66 1.44-1.455v-5.09zm.675-24A1.406 1.406 0 0 0 35.603 16h-7.206c-.788 0-1.419.66-1.396 1.455l.63 17.454c.023.796.698 1.455 1.486 1.455h5.766c.788 0 1.463-.66 1.486-1.455l.63-17.454z" mask="url(#b)"/></g></svg>